PathFileType	4	(X/Y/Z)	s07c0201.trc
DataRate	CameraRate	NumFrames	NumMarkers	Units	OrigDataRate	OrigDataStartFrame	OrigNumFrames
200	200	7	48	mm	200	1500	2000
Frame#	Time	racr			lacr			c7			jug			rlel			rdr			llel			ldr			s2			lic			ric			lasi			rasi			rpsi			lpsi			rgt			lgt			rth1			rth2			rth3			rth4			rlfc			rmfc			rsh1			rsh2			rsh3			rsh4			rlmal			rcal			rtoe			rmt5			lth1			lth2			lth4			lth3			llfc			lmfc			lsh1			lsh2			lsh3			lsh4			llmal			lcal			ltoe			lmt5			SBIKE			LBIKE			RBIKE			
		X1	Y1	Z1	X2	Y2	Z2	X3	Y3	Z3	X4	Y4	Z4	X5	Y5	Z5	X6	Y6	Z6	X7	Y7	Z7	X8	Y8	Z8	X9	Y9	Z9	X10	Y10	Z10	X11	Y11	Z11	X12	Y12	Z12	X13	Y13	Z13	X14	Y14	Z14	X15	Y15	Z15	X16	Y16	Z16	X17	Y17	Z17	X18	Y18	Z18	X19	Y19	Z19	X20	Y20	Z20	X21	Y21	Z21	X22	Y22	Z22	X23	Y23	Z23	X24	Y24	Z24	X25	Y25	Z25	X26	Y26	Z26	X27	Y27	Z27	X28	Y28	Z28	X29	Y29	Z29	X30	Y30	Z30	X31	Y31	Z31	X32	Y32	Z32	X33	Y33	Z33	X34	Y34	Z34	X35	Y35	Z35	X36	Y36	Z36	X37	Y37	Z37	X38	Y38	Z38	X39	Y39	Z39	X40	Y40	Z40	X41	Y41	Z41	X42	Y42	Z42	X43	Y43	Z43	X44	Y44	Z44	X45	Y45	Z45	X46	Y46	Z46	X47	Y47	Z47	X48	Y48	Z48	
1500	7.5000	431.304950	1439.856563	-82.526384	443.831486	1453.620083	-376.036427	407.302654	1511.870687	-220.697020	353.333305	1367.982982	-240.941051	442.033780	1101.246219	33.037578	687.013431	953.775211	-61.407847	446.189959	1157.604892	-561.703713	649.053396	953.943324	-450.618085	-137.084620	1201.896815	-247.826010	-7.559792	1276.628009	-388.892571	33.342056	1253.849378	-111.562228	37.143633	1202.105507	-391.599836	59.661592	1213.860485	-139.034328	-110.684026	1241.146709	-200.292701	-112.294979	1257.720686	-308.088706	15.329871	1138.416371	-72.643982	-49.325259	1110.932259	-426.352554	153.245044	1090.698636	-83.183675	239.021915	1077.967099	-99.191636	309.043711	1028.713262	-101.802267	248.381586	1107.072609	-118.256449	417.390525	941.754126	-140.835908	399.264160	923.663597	-246.419619	331.673632	836.782511	-108.599436	290.122658	759.269644	-115.221660	217.385274	711.674990	-102.878906	300.114771	747.652836	-154.275450	122.355832	614.845724	-88.602910	51.371842	642.236215	-118.149264	197.326655	390.349842	-130.437841	128.879461	438.167336	-61.120011	0.477498	995.374309	-443.216486	56.757384	928.162344	-454.095378	90.305947	943.448890	-450.904306	74.161142	840.748693	-447.045504	154.982133	689.834301	-415.233769	153.763781	672.360303	-324.329210	138.036909	544.973005	-434.782560	158.984049	463.834730	-415.050166	135.008451	376.389195	-416.157993	164.261176	467.977847	-372.889170	126.334489	240.451891	-404.821149	63.969537	195.220657	-371.036463	353.994831	210.741434	-363.701105	278.427017	172.728646	-428.991504	-264.093933	974.534397	-240.302667	-83.346111	78.709298	-437.050468	-83.769420	79.482585	-39.577064	
1501	7.5050	427.777485	1442.199937	-78.821233	446.645204	1452.349207	-372.428262	406.871970	1512.110602	-218.759740	353.464831	1367.884712	-237.944740	441.490799	1102.256090	32.607848	687.019210	954.305076	-61.644547	447.858461	1158.201666	-562.526015	649.829701	954.101530	-451.516761	-136.366378	1200.828178	-252.134805	-4.697580	1273.672281	-392.761674	31.774378	1254.745345	-114.072562	39.405529	1199.395159	-394.219501	58.910018	1214.265482	-141.398241	-110.870901	1240.522793	-204.832138	-111.200715	1256.217875	-312.981596	14.491602	1140.406447	-74.470124	-47.861726	1108.440198	-428.541512	152.904397	1095.053759	-85.187575	238.891180	1083.989240	-101.009491	309.432128	1036.270808	-102.726772	247.496180	1113.023371	-120.548132	420.105623	950.849012	-142.440617	403.249833	932.225144	-248.496563	336.008756	845.338196	-110.126320	294.597596	767.703936	-116.503316	222.209324	719.869069	-104.091121	304.897592	756.084975	-155.430356	126.724740	621.787098	-89.425661	55.188068	646.884636	-118.701295	206.018981	398.263723	-132.208162	138.103689	444.980214	-61.702834	-0.510029	992.644889	-445.398660	54.447729	924.362080	-456.245197	88.294798	938.965190	-452.769303	70.018634	836.559329	-449.219866	148.186445	684.707194	-415.420456	146.444426	667.345749	-324.203506	130.875715	540.198050	-434.824561	151.383930	459.059717	-414.905213	127.034655	371.708584	-416.070066	156.557975	463.333566	-372.897805	117.691490	235.741640	-404.691138	54.945236	191.171487	-370.926953	345.196420	204.436400	-363.592148	271.716198	163.938798	-424.799867	-264.084839	974.588651	-240.798751	-83.338553	78.689373	-437.080727	-83.772818	79.523455	-39.617637	
1502	7.5100	424.717836	1445.087008	-74.859541	449.392860	1450.783315	-368.609479	406.410929	1512.234095	-216.990331	354.260172	1367.337381	-234.369915	441.256132	1103.206447	32.073600	687.002254	954.843903	-61.906597	449.701988	1158.727526	-563.225084	650.814654	954.188411	-452.565904	-135.864764	1199.978093	-256.255516	-1.930795	1270.750691	-396.378085	30.083640	1255.784927	-116.503534	41.876819	1196.889358	-396.977899	57.979723	1214.977624	-143.650473	-111.173141	1240.272197	-209.209543	-110.502283	1254.946754	-317.470908	13.511031	1142.695430	-76.288294	-46.106473	1106.284774	-430.880663	152.360664	1099.467272	-87.236403	238.054720	1089.925205	-102.459821	310.005560	1043.475789	-104.546781	247.342606	1119.659913	-123.905008	422.351613	959.242481	-144.497961	405.927812	940.408222	-250.707099	339.987703	853.611902	-111.658910	299.170824	775.683118	-117.720837	226.851515	727.566287	-105.166166	309.340343	763.851315	-156.624650	131.077277	628.012211	-90.084577	59.019267	650.713347	-119.046302	216.943418	406.653418	-132.579689	147.941826	451.151150	-62.142535	-1.228464	990.260214	-447.530066	52.487242	921.013515	-458.366653	86.619445	935.044949	-454.397487	66.378810	832.863760	-451.190403	141.975263	679.677825	-415.397104	139.628129	662.961915	-324.024544	123.990525	536.183903	-434.896667	143.892320	454.957822	-414.697009	119.069419	367.670290	-416.002266	149.033474	459.089498	-372.752894	108.656953	231.754421	-404.341657	45.730310	187.706420	-370.742976	336.049568	198.911768	-363.594129	261.423858	160.013921	-426.057735	-264.065236	974.620159	-241.139824	-83.346998	78.658441	-437.131504	-83.772333	79.585516	-39.657005	
1503	7.5150	421.065788	1447.435929	-71.503699	452.032249	1449.036212	-364.821013	406.010171	1512.175100	-215.183616	354.194643	1367.020242	-231.226374	441.139923	1104.208623	31.362059	687.141462	955.481836	-62.390418	451.546810	1159.008515	-563.850671	651.987238	954.194504	-453.563853	-135.566238	1199.396093	-260.129802	0.832819	1268.132247	-399.843179	28.194431	1256.737267	-118.575899	43.730880	1194.434786	-398.712967	56.923149	1215.833757	-145.797762	-111.522988	1240.098470	-213.406992	-109.274038	1252.836864	-321.889173	12.532696	1145.075370	-78.129504	-44.633081	1104.049559	-433.019687	151.744123	1103.522255	-89.347252	237.522900	1095.254133	-104.703422	310.006883	1050.298619	-105.872357	245.976834	1125.138357	-126.003765	424.646812	968.206772	-147.397144	408.004065	948.287525	-252.973008	343.464131	861.623862	-113.175895	303.000354	783.528913	-119.020415	231.333499	734.635279	-106.264705	313.629155	770.839993	-157.875343	136.033477	632.769228	-90.616837	63.419923	653.701577	-119.173700	227.869548	413.858664	-133.425162	157.892448	456.729594	-62.547781	-1.646949	988.242424	-449.581769	50.957187	917.997066	-460.210573	85.318845	931.472991	-455.871073	63.298030	829.669764	-452.856432	136.432356	676.124437	-415.847902	133.431339	659.145210	-323.797633	117.420153	532.745844	-434.909827	136.569817	451.408381	-414.519888	110.989090	364.395937	-415.968615	142.040810	455.777942	-372.435030	99.334994	228.378746	-403.869555	36.310067	184.952161	-370.620812	326.656291	194.013684	-363.384419	250.063328	157.796897	-428.649140	-264.054356	974.625230	-241.402236	-83.341038	78.634173	-437.144358	-83.771311	79.617219	-39.677333	
1504	7.5200	417.165204	1449.773595	-68.651901	454.717747	1446.951038	-360.879324	405.743487	1511.867875	-213.407501	353.875757	1366.603786	-228.090407	440.955723	1105.496869	30.913337	687.314434	956.083938	-62.935722	453.607265	1159.294967	-564.442450	653.377476	954.289366	-454.473763	-135.449443	1199.173224	-263.796082	3.420172	1265.667048	-403.034537	26.215606	1258.314696	-120.920748	45.757093	1192.554437	-400.790197	55.698528	1216.888373	-147.713054	-112.055504	1240.361937	-217.341634	-108.251296	1251.931141	-327.034687	11.265435	1147.603904	-80.016292	-43.269931	1102.390336	-434.944375	150.748354	1107.743333	-90.997668	236.917576	1100.204442	-107.089366	309.739182	1056.821355	-107.606090	244.466878	1130.345551	-128.482627	425.669110	976.273006	-150.001392	409.473876	955.736341	-255.282284	346.552604	868.903787	-114.684745	306.842829	790.406843	-120.249565	235.663438	740.800299	-107.391987	317.949157	778.188623	-158.505544	141.469841	636.858286	-90.952491	68.022429	655.839390	-119.229213	239.052961	420.598908	-134.103059	167.997779	461.524616	-62.794652	-1.812121	986.555168	-451.337002	49.775669	915.623948	-461.716058	84.329537	928.522382	-457.086765	60.784939	827.062808	-454.112418	131.607618	673.082102	-416.169690	128.151689	655.840876	-323.682703	111.373629	530.121881	-434.848748	129.538871	448.658356	-414.406221	103.079560	361.867404	-415.742288	134.760514	452.830821	-372.680485	90.138405	226.066351	-403.848365	26.667400	183.090377	-370.420290	324.693125	183.598824	-357.452545	240.147955	154.130590	-428.458175	-264.102635	974.568833	-241.518507	-83.341666	78.642392	-437.160210	-83.760639	79.611735	-39.715439	
1505	7.5250	413.772594	1451.528977	-65.825269	457.372191	1444.754475	-357.115055	405.646434	1511.346646	-211.730617	353.763453	1365.987387	-225.210345	440.763142	1106.779658	30.541551	687.209817	956.609066	-62.827498	455.663282	1159.431333	-565.015995	654.522825	953.547635	-455.223058	-135.613980	1199.263979	-267.251903	5.876962	1263.554121	-405.861185	24.169491	1260.128059	-123.145998	47.333427	1190.758295	-402.331229	54.287688	1218.221393	-149.497681	-113.100573	1241.565398	-220.598229	-108.057560	1251.890278	-330.456479	9.805784	1150.504100	-81.638070	-42.065378	1101.057176	-436.720976	149.432200	1111.674071	-92.347916	235.849047	1105.456670	-109.190059	309.081796	1063.239959	-109.267077	242.901542	1135.141269	-130.849235	426.209465	983.910291	-152.299240	409.951738	962.924156	-257.128272	349.172429	875.547201	-116.172690	310.782898	796.164889	-121.431011	239.929816	746.103749	-108.469972	321.713055	784.283765	-159.821669	147.124229	640.068120	-91.209764	72.793272	657.091912	-119.117136	250.173533	426.646808	-134.459051	178.321215	465.606528	-63.078696	-1.721256	985.307294	-452.811912	48.976586	913.646708	-462.835872	83.604503	926.208597	-458.077892	58.752326	825.012652	-455.077229	127.831374	670.565951	-416.295723	123.863191	653.286467	-323.520260	105.965672	528.207187	-434.801964	122.988230	446.522562	-414.172908	95.439108	360.121106	-415.490588	128.463001	450.810203	-372.508017	80.818701	224.455837	-403.607729	16.945600	182.025234	-370.202032	315.020527	179.785075	-357.308532	230.137087	151.143262	-428.249478	-264.199222	974.523559	-241.572141	-83.357493	78.627290	-437.158255	-83.792754	79.613793	-39.707185	
1506	7.5300	410.586370	1453.002677	-63.176561	461.020247	1443.051672	-354.685392	405.773570	1510.580114	-210.182515	354.762103	1364.837841	-222.642752	440.668424	1108.000552	30.218236	687.236169	957.468737	-62.895701	457.858419	1159.423369	-565.581548	656.096198	953.297483	-455.843766	-135.931769	1199.805239	-270.432140	8.068376	1261.798776	-408.365997	21.965281	1262.301083	-125.171363	48.736656	1189.553449	-403.763588	52.699321	1219.694864	-151.140648	-113.932839	1242.727746	-224.121461	-107.544243	1251.788299	-334.363366	8.248547	1153.747922	-83.088823	-41.076191	1100.105424	-438.381355	148.513276	1116.253965	-93.907572	234.671592	1110.468544	-111.351738	308.548590	1068.462891	-112.346275	241.233933	1139.922351	-133.471343	426.071240	990.821708	-154.668153	409.986815	969.187926	-259.595349	351.281912	881.534405	-117.809541	314.002842	801.568957	-122.830009	243.950492	750.431899	-109.482756	325.168455	789.780859	-161.268684	152.774789	642.304971	-91.347017	77.566120	657.458078	-118.815815	261.337238	432.031048	-134.887844	188.597075	469.013803	-63.321561	-1.496799	984.478868	-453.985734	48.472792	912.367088	-463.540957	83.246563	924.563996	-458.757626	57.361092	823.605915	-455.676445	125.058828	668.819798	-416.423966	120.550572	651.536924	-323.125860	101.381551	527.003635	-434.673530	117.091259	445.152141	-413.891381	88.189688	359.118499	-415.231888	122.641667	449.344904	-372.269337	71.415765	223.617241	-403.146374	7.259916	181.974381	-369.947794	305.349804	176.468809	-357.043790	220.144193	148.493109	-427.932134	-264.297443	974.471025	-241.656047	-83.358781	78.623451	-437.169826	-83.789514	79.612405	-39.706390	
